<?xml version="1.0" encoding="utf-8"?>
<!-- Generator: Adobe Illustrator 23.0.1, SVG Export Plug-In . SVG Version: 6.00 Build 0)  -->
<svg version="1.1"
	 id="svg525" xmlns:cc="http://creativecommons.org/ns#" xmlns:dc="http://purl.org/dc/elements/1.1/" xmlns:rdf="http://www.w3.org/1999/02/22-rdf-syntax-ns#" xmlns:svg="http://www.w3.org/2000/svg"
	 xmlns="http://www.w3.org/2000/svg" xmlns:xlink="http://www.w3.org/1999/xlink" x="0px" y="0px" viewBox="0 0 1200 500"
	 style="enable-background:new 0 0 1200 500;" xml:space="preserve">
<style type="text/css">
	.st0{stroke:#EEEEEE;}
	.st1{clip-path:url(#SVGID_2_);}
	.st2{fill:#1F77B4;fill-opacity:0.5;}
	.st3{fill:none;stroke:#1F77B4;stroke-miterlimit:2;}
	.st4{fill:#FF7F0E;fill-opacity:0.5;}
	.st5{fill:none;stroke:#FF7F0E;stroke-miterlimit:2;}
	.st6{fill:#2CA02C;fill-opacity:0.5;}
	.st7{fill:none;stroke:#2CA02C;stroke-miterlimit:2;}
	.st8{fill:#D62728;fill-opacity:0.5;}
	.st9{fill:none;stroke:#D62728;stroke-miterlimit:2;}
	.st10{fill:#9467BD;fill-opacity:0.5;}
	.st11{fill:none;stroke:#9467BD;stroke-miterlimit:2;}
	.st12{fill:#8C564B;fill-opacity:0.5;}
	.st13{fill:none;stroke:#8C564B;stroke-miterlimit:2;}
	.st14{fill:#444444;}
	.st15{font-family:'Verdana';}
	.st16{font-size:12px;}
	.st17{fill:#808BA4;}
</style>
<g id="g29">
	<g id="g25">
	</g>
	<g id="g27">
	</g>
</g>
<g id="g363">
	<g id="g361">
		<g id="g35">
			<g id="g31">
			</g>
			<g id="g33">
			</g>
		</g>
		<g id="g99">
			<g id="g97">
				<path id="path59" class="st0" d="M80,404h963"/>
				<path id="path77" class="st0" d="M80,259h963"/>
				<path id="path95" class="st0" d="M80,114.1h963"/>
				<path id="path55" class="st0" d="M80,418h963"/>
			</g>
		</g>
		<g id="g101">
		</g>
		<g id="g107">
		</g>
		<g id="g109">
		</g>
		<g id="g111">
		</g>
		<g id="g113">
		</g>
		<g>
			<defs>
				<rect id="SVGID_1_" x="80" y="100" width="963" height="320"/>
			</defs>
			<clipPath id="SVGID_2_">
				<use xlink:href="#SVGID_1_"  style="overflow:visible;"/>
			</clipPath>
			<g id="g225" transform="translate(80, 100)" class="st1">
				<g id="g223">
					<g id="g131">
						<g id="g119">
							<g id="g117">
								<path id="path115" class="st2" d="M926.7,3360H0v3360h6l0-6416l0,6416h18.1l0-6416l0.2,6416h90.7l0-6416l0.1,6416h60.4
									l0-6416l0.1,6416h48.4l0-6416l0,6416h18.1l0-6416l0.2,6416h90.7l0-6416l0.2,6416h108.8l0-6459.6l0.2,6459.6h102.8l0-6459.6
									l0.1,6459.6h60.5l0-6416l0.1,6416h66.5l0-6416l0.4,6416h199.5l0-6546.9l6.1-66.5l6-76.1l6.1-3.2l6.1,2.4l12.1-6.1l6.1,114.3
									l6,166.1l0,6416h6"/>
							</g>
						</g>
						<g id="g121">
						</g>
						<g id="g125">
							<path id="path123" class="st3" d="M0,6720h6l0-6416l0,6416h18.1l0-6416l0.2,6416h90.7l0-6416l0.1,6416h60.4l0-6416l0.1,6416
								h48.4l0-6416l0,6416h18.1l0-6416l0.2,6416h90.7l0-6416l0.2,6416h108.8l0-6459.6l0.2,6459.6h102.8l0-6459.6l0.1,6459.6h60.5
								l0-6416l0.1,6416h66.5l0-6416l0.4,6416h199.5l0-6546.9l6.1-66.5l6-76.1l6.1-3.2l6.1,2.4l12.1-6.1l6.1,114.3l6,166.1l0,6416h6
								"/>
						</g>
						<g id="g127">
						</g>
						<g id="g129">
						</g>
					</g>
					<g id="g149">
						<g id="g137">
							<g id="g135">
								<path id="path133" class="st4" d="M938.8,3360H0v3360h66.5l0.1-6416l0.1,6416h60.5l0-6416l0.1,6416h48.4l0-6416l0,6416h18.1
									l0-6416l0.2,6416h90.7l0-6416l0.2,6416h108.8l0-6459.6l0,6459.6h18.1l0-6416l0,6416H430l0-6416l0.1,6416h42.3l0-6416l0,6416
									h24.2l0-6416h12.1l0,6416h60.5l0.1-6416l0.1,6416h42.3l0-6416h12.1l0,6416h90.7l0.2-6416l0.2,6416h108.8l0-6416l0,6416h18.1
									l0-6416l0.1,6416h54.4l0-6416l0,6416h30.2l0-6459.6l6.1,43.6l0,6416h6"/>
							</g>
						</g>
						<g id="g139">
						</g>
						<g id="g143">
							<path id="path141" class="st5" d="M0,6720h66.5l0.1-6416l0.1,6416h60.5l0-6416l0.1,6416h48.4l0-6416l0,6416h18.1l0-6416
								l0.2,6416h90.7l0-6416l0.2,6416h108.8l0-6459.6l0,6459.6h18.1l0-6416l0,6416H430l0-6416l0.1,6416h42.3l0-6416l0,6416h24.2
								l0-6416h12.1l0,6416h60.5l0.1-6416l0.1,6416h42.3l0-6416h12.1l0,6416h90.7l0.2-6416l0.2,6416h108.8l0-6416l0,6416h18.1
								l0-6416l0.1,6416h54.4l0-6416l0,6416h30.2l0-6459.6l6.1,43.6l0,6416h6"/>
						</g>
						<g id="g145">
						</g>
						<g id="g147">
						</g>
					</g>
					<g id="g167">
						<g id="g155">
							<g id="g153">
								<path id="path151" class="st6" d="M938.8,3360H0v3360h36.3l0.1-6517.3l6.1-29.6l6,18.1L54.5,82l6.1-21.7l6.1,27.5L72.7,59
									l6.1,63l6.1-25.5L90.8,82l6.1,12.2l6,78.9h6.1l6.1,18.1h6l6.1-9.7h6.1l6.1,9.7h24.2l6.1-9.7h6.1l6.1,9.7h42.4l6.1-9.7
									l6.1,9.7h6h30.3l6.1-9.7l6.1,9.7h6.1l6-9.7h6.1l6.1,9.7h6h18.2l6.1-18.1l6.1,8.4l6,9.7h18.2l6.1-9.7l6.1,9.7l6-9.7l6.1,9.7
									h6.1H430l6.1-84.6l6.1,2.8l6.1,33.1h36.3l6,30.6l6.1,8.4l6.1-28.5l6-5.5l6.1-46.2l6.1-53l6-25.5l6.1,11.9l6.1-12.6l6.1,7.6
									l6.1,31.9l6.1,71.9l6,9h18.2l6.1-108.6l6.1-15.9l6,5.6l6.1-4.2l6.1-3.3l6.1,17.9l6.1,8.3l6.1,6.2l6,11.9L642,122l6.1,20.5
									l6-13.1l6.1,13.1h12.1l6.1,30.6l6.1,18.1h6h6.1l6.1-84.6l6,12l6.1,3.4l6.1,43.6l6-71.4l6.1-24l6.1,132.5l0.3,6517.3h175.3
									l0-6416l6-145l6.1-11.5l6.1,55.1l0,6517.3h6"/>
							</g>
						</g>
						<g id="g157">
						</g>
						<g id="g161">
							<path id="path159" class="st7" d="M0,6720h36.3l0.1-6517.3l6.1-29.6l6,18.1L54.5,82l6.1-21.7l6.1,27.5L72.7,59l6.1,63
								l6.1-25.5L90.8,82l6.1,12.2l6,78.9h6.1l6.1,18.1h6l6.1-9.7h6.1l6.1,9.7h24.2l6.1-9.7h6.1l6.1,9.7h42.4l6.1-9.7l6.1,9.7h6
								h30.3l6.1-9.7l6.1,9.7h6.1l6-9.7h6.1l6.1,9.7h6h18.2l6.1-18.1l6.1,8.4l6,9.7h18.2l6.1-9.7l6.1,9.7l6-9.7l6.1,9.7h6.1H430
								l6.1-84.6l6.1,2.8l6.1,33.1h36.3l6,30.6l6.1,8.4l6.1-28.5l6-5.5l6.1-46.2l6.1-53l6-25.5l6.1,11.9l6.1-12.6l6.1,7.6l6.1,31.9
								l6.1,71.9l6,9h18.2l6.1-108.6l6.1-15.9l6,5.6l6.1-4.2l6.1-3.3l6.1,17.9l6.1,8.3l6.1,6.2l6,11.9L642,122l6.1,20.5l6-13.1
								l6.1,13.1h12.1l6.1,30.6l6.1,18.1h6h6.1l6.1-84.6l6,12l6.1,3.4l6.1,43.6l6-71.4l6.1-24l6.1,132.5l0.3,6517.3h175.3l0-6416
								l6-145l6.1-11.5l6.1,55.1l0,6517.3h6"/>
						</g>
						<g id="g163">
						</g>
						<g id="g165">
						</g>
					</g>
					<g id="g185">
						<g id="g173">
							<g id="g171">
								<path id="path169" class="st8" d="M963,3360H0v3360h90.7l0.2-6416L91,6720h108.8l0-6416l0.3,6416h151.1l0-6416l0.3,6416
									h169.3l0-6416l0.2,6416h108.8l0-6416l0,6416H648l0-6416l0.6,6416h302.3l0-6416l0,6416H963"/>
							</g>
						</g>
						<g id="g175">
						</g>
						<g id="g179">
							<path id="path177" class="st9" d="M0,6720h90.7l0.2-6416L91,6720h108.8l0-6416l0.3,6416h151.1l0-6416l0.3,6416h169.3l0-6416
								l0.2,6416h108.8l0-6416l0,6416H648l0-6416l0.6,6416h302.3l0-6416l0,6416H963"/>
						</g>
						<g id="g181">
						</g>
						<g id="g183">
						</g>
					</g>
					<g id="g203">
						<g id="g191">
							<g id="g189">
								<path id="path187" class="st10" d="M872.2,3360H0v3360h755.6l1.4-6416l6-284.7l6.1-3.3l6.1,1.3l6,1.3l6.1-0.7l6.1,0.7l6,3.5
									l6.1-5.5l6,1.3l6.1-0.7l6.1,2.7l6,13l6.1-15.1l6.1,2l6-1.4L854,20l6.1,92.3l6.1,191.7l0,6416h6"/>
							</g>
						</g>
						<g id="g193">
						</g>
						<g id="g197">
							<path id="path195" class="st11" d="M0,6720h755.6l1.4-6416l6-284.7l6.1-3.3l6.1,1.3l6,1.3l6.1-0.7l6.1,0.7l6,3.5l6.1-5.5
								l6,1.3l6.1-0.7l6.1,2.7l6,13l6.1-15.1l6.1,2l6-1.4L854,20l6.1,92.3l6.1,191.7l0,6416h6"/>
						</g>
						<g id="g199">
						</g>
						<g id="g201">
						</g>
					</g>
					<g id="g221">
						<g id="g209">
							<g id="g207">
								<path id="path205" class="st12" d="M266.5,3360H0v3360h24.2l0-6503.3l6.1-35.2l6.1-15.8l6.1,25.5l6,11.5h6.1h6.1l6.1-11.5
									l6.1,25.5l6.1-14.1H103l6.1,14.1l6.1-14.1h6l6.1,14.1l6.1,87.3h127.2l0,6416h6"/>
							</g>
						</g>
						<g id="g211">
						</g>
						<g id="g215">
							<path id="path213" class="st13" d="M0,6720h24.2l0-6503.3l6.1-35.2l6.1-15.8l6.1,25.5l6,11.5h6.1h6.1l6.1-11.5l6.1,25.5
								l6.1-14.1H103l6.1,14.1l6.1-14.1h6l6.1,14.1l6.1,87.3h127.2l0,6416h6"/>
						</g>
						<g id="g217">
						</g>
						<g id="g219">
						</g>
					</g>
				</g>
			</g>
		</g>
		<g id="g227">
		</g>
		<g id="g233">
		</g>
		<g id="g271">
			<g id="g241">
				<text transform="matrix(1 0 0 1 107.3482 433)" class="st14 st15 st16">13:00</text>
				<text transform="matrix(1 0 0 1 143.313 433)" class="st14 st15 st16"> </text>
				<text transform="matrix(1 0 0 1 90.3589 448.6)" class="st14 st15 st16">Aug 4, 2018</text>
			</g>
			<g id="g245">
				<text id="text243" transform="matrix(1 0 0 1 230.5976 433)" class="st14 st15 st16">14:00</text>
			</g>
			<g id="g249">
				<text id="text247" transform="matrix(1 0 0 1 351.7276 433)" class="st14 st15 st16">15:00</text>
			</g>
			<g id="g253">
				<text id="text251" transform="matrix(1 0 0 1 472.8576 433)" class="st14 st15 st16">16:00</text>
			</g>
			<g id="g257">
				<text id="text255" transform="matrix(1 0 0 1 593.9875 433)" class="st14 st15 st16">17:00</text>
			</g>
			<g id="g261">
				<text id="text259" transform="matrix(1 0 0 1 715.1176 433)" class="st14 st15 st16">18:00</text>
			</g>
			<g id="g265">
				<text id="text263" transform="matrix(1 0 0 1 836.2576 433)" class="st14 st15 st16">19:00</text>
			</g>
			<g id="g269">
				<text id="text267" transform="matrix(1 0 0 1 957.3876 433)" class="st14 st15 st16">20:00</text>
			</g>
		</g>
		<g id="g357">
			<g id="g283">
				<text id="text281" transform="matrix(1 0 0 1 48.748 406.2)" class="st14 st15 st16">0.01</text>
			</g>
			<g id="g319">
				<text id="text317" transform="matrix(1 0 0 1 56.377 261.24)" class="st14 st15 st16">0.1</text>
			</g>
			<g id="g355">
				<text id="text353" transform="matrix(1 0 0 1 68.3711 116.28)" class="st14 st15 st16">1</text>
			</g>
		</g>
		<g id="g359">
		</g>
	</g>
</g>
<g id="g365">
</g>
<g id="g367">
</g>
<g id="g369">
</g>
<g id="g371">
</g>
<g id="g373">
</g>
<g id="g385">
	<g id="g381">
	</g>
	<g id="g383">
	</g>
</g>
<g id="g523">
	<g id="g515" transform="translate(1062.26, 100)" pointer-events="all">
		<polygon id="rect513" class="st17" points="0,0 0,0 0,0 0,0 0,0 0,0 0,0 0,0 		"/>
	</g>
	<g id="g517">
	</g>
	<g id="g519">
	</g>
	<g id="g521">
	</g>
</g>
</svg>
